<svg height="512" viewBox="0 0 512 512" width="512" xmlns="http://www.w3.org/2000/svg"><g id="BULINE"><circle cx="256" cy="262" fill="#76c27d" r="250"/></g><g id="Icons"><path d="m386.2 140.88v167a130.3 130.3 0 0 1 -121.85 130c-2.79.19-5.62.28-8.47.28a130.31 130.31 0 0 1 -130.31-130.31v-167a55.76 55.76 0 0 1 55.77-55.76h149.09a55.76 55.76 0 0 1 55.77 55.79z" fill="#afccd9"/><path d="m386.2 140.88v167a130.3 130.3 0 0 1 -121.85 130 130.29 130.29 0 0 1 -121.83-130v-167a55.75 55.75 0 0 1 55.75-55.76h132.16a55.76 55.76 0 0 1 55.77 55.76z" fill="#c2e2f5"/><path d="m360 282.18v57.82c0 38.37-38.31 69.48-85.58 69.48h-34c-47.28 0-85.6-31.11-85.6-69.48v-57.82c0-16.43 16.4-29.75 36.64-29.75h131.93c20.22 0 36.61 13.32 36.61 29.75z" fill="#ad3542"/><circle cx="255.88" cy="50.92" fill="#c2e2f5" r="44.36"/><rect fill="#fff" height="86.12" rx="10.53" width="114.44" x="200.2" y="115.39"/><path d="m237 166.94a20.45 20.45 0 1 0 40.9 0c0-11.29-20.45-37.42-20.45-37.42s-20.45 26.13-20.45 37.42z" fill="#d93a46"/><circle cx="255.88" cy="50.92" fill="#afccd9" r="25.88"/><path d="m262.13 409.51v102.42q-3.06.07-6.13.07t-6.36-.08v-102.41z" fill="#d93a46"/><path d="m360 247.23v92.77c0 38.38-38.32 69.48-85.58 69.48h-3.2c-47.26 0-85.58-31.1-85.58-69.48v-57.83a23.84 23.84 0 0 1 .28-3.6l-31.1 2.55s-.83-44.69 35.67-47.19c0 0 3.93-.45 9.71-.52 10.31-.12 26.49 1 36.76 8 0 0 15.19 9.5 35.86 0 0 0 19.16-14.08 43-5.39a28.31 28.31 0 0 0 20-.45 20.47 20.47 0 0 1 18.18 1.19 12 12 0 0 1 6 10.47z" fill="#d93a46"/><path d="m185.93 278.57-31.1 2.55s-.83-44.69 35.67-47.19c0 0 3.93-.45 9.71-.52-14.65 15.08-14.28 45.16-14.28 45.16z" fill="#ad3542"/><g fill="#fff"><rect height="16.67" rx="8.33" width="46.67" x="320" y="154.1"/><rect height="16.67" rx="8.33" width="30.67" x="336" y="187.39"/><rect height="16.67" rx="8.33" width="46.67" x="320" y="221.43"/><rect height="16.67" rx="8.33" width="30.67" x="336" y="254.72"/><rect height="16.67" rx="8.33" width="46.67" x="320" y="289.69"/><rect height="16.67" rx="8.33" width="30.67" x="336" y="322.98"/></g><circle cx="236.97" cy="280.41" fill="#d65366" r="12.31"/><circle cx="289.35" cy="298.03" fill="#d65366" r="12.31"/><circle cx="264.36" cy="331.31" fill="#d65366" r="7.59"/><circle cx="236.97" cy="365.43" fill="#d65366" r="7.59"/><circle cx="300.25" cy="380.61" fill="#d65366" r="7.59"/><path d="m491.86 91.54-88.73 88.73-73.13-73.11-15.6-15.62a51.68 51.68 0 0 1 73.09-73.09l15.62 15.62 15.62-15.62a51.69 51.69 0 0 1 73.11 73.09z" fill="#db3a46"/><path d="m403.13 180.27-73.13-73.11-15.6-15.62a51.68 51.68 0 0 1 30.45-87.86c-3.59 37.95-.66 110.89 58.28 176.59z" fill="#af3542"/><path d="m294.33 463v10a4.87 4.87 0 0 1 -4.87 4.88h-5.75a4.88 4.88 0 0 0 -4.88 4.87v28.25q-8.28.75-16.7 1-3.06.07-6.13.07t-6.36-.08l-2.81-.08q-5.87-.22-11.66-.7v-28.49a4.88 4.88 0 0 0 -4.88-4.87h-5.75a4.87 4.87 0 0 1 -4.87-4.88v-9.97a4.87 4.87 0 0 1 4.87-4.88h64.92a4.87 4.87 0 0 1 4.87 4.88z" fill="#d5d2d3"/><path d="m294.33 463v10a4.87 4.87 0 0 1 -4.87 4.88h-5.75a4.88 4.88 0 0 0 -4.88 4.87v28.25q-8.28.75-16.7 1-3.06.07-6.13.07t-6.36-.08l-2.81-.08v-29.19a4.87 4.87 0 0 0 -4.87-4.87h-5.75a4.87 4.87 0 0 1 -4.87-4.88v-9.97a4.87 4.87 0 0 1 4.87-4.88h53.25a4.87 4.87 0 0 1 4.87 4.88z" fill="#fff"/><path d="m403.13 116.07a7.54 7.54 0 0 1 -5.31-2.2l-26.13-26.13a7.5 7.5 0 0 1 10.61-10.61l20 20 35.7-48.48a7.5 7.5 0 1 1 12 8.9l-40.84 55.45a7.46 7.46 0 0 1 -5.47 3z" fill="#fdfcfd"/></g></svg>