<svg viewBox="-26 0 511 512" xmlns="http://www.w3.org/2000/svg"><path d="m338.832031 375.5c-66.589843 0-120.761719-54.109375-120.761719-120.621094 0-26.945312 18.90625-75.746094 56.191407-145.050781 27.308593-50.753906 54.992187-94.664063 55.269531-95.101563l9.300781-14.726562 9.304688 14.726562c.277343.4375 27.960937 44.347657 55.269531 95.101563 37.285156 69.300781 56.191406 118.105469 56.191406 145.050781 0 66.511719-54.175781 120.621094-120.765625 120.621094zm0 0" fill="#ff193d"/><path d="m338.832031 375.5v-375.5l9.304688 14.726562c.277343.4375 27.960937 44.347657 55.269531 95.101563 37.285156 69.300781 56.191406 118.105469 56.191406 145.050781 0 66.511719-54.175781 120.621094-120.765625 120.621094zm0 0" fill="#dc0812"/><path d="m165.164062 512c-90.796874 0-164.664062-73.78125-164.664062-164.46875 0-36.742188 25.777344-103.285156 76.617188-197.777344 37.234374-69.207031 88.046874-149.753906 88.046874-149.753906s50.8125 80.546875 88.042969 149.753906c50.839844 94.492188 76.617188 161.035156 76.617188 197.777344 0 90.6875-73.867188 164.46875-164.660157 164.46875zm0 0" fill="#ff193d"/><path d="m165.164062 512v-512s50.8125 80.546875 88.042969 149.753906c50.839844 94.492188 76.617188 161.035156 76.617188 197.777344 0 90.6875-73.867188 164.46875-164.660157 164.46875zm0 0" fill="#dc0812"/></svg>