<svg id="Layer_1" enable-background="new 0 0 128 128" height="512" viewBox="0 0 128 128" width="512" xmlns="http://www.w3.org/2000/svg"><g><g fill="#e6e7e8"><circle cx="107" cy="53.609" r="15.436"/><circle cx="25" cy="53.602" r="15.436"/><circle cx="85.907" cy="22.602" r="15.436"/><circle cx="46.093" cy="22.609" r="15.436"/><path d="m66 32.834c-.289 0-.563.125-.753.342-.04.046-4.083 4.682-9.249 11.43-.336.438-8.576 11.887-8.883 12.345-9.866 14.704-14.868 26.187-14.868 34.131 0 18.611 15.142 33.752 33.753 33.752s33.753-15.141 33.753-33.752c0-20.133-31.654-56.375-33.002-57.908-.19-.216-.464-.34-.751-.34z"/></g><g><g fill="#6dc9f7"><circle cx="103" cy="49.609" r="14.436"/><circle cx="21" cy="49.602" r="14.436"/></g><g fill="#6dc9f7"><circle cx="81.907" cy="18.602" r="14.436"/><circle cx="42.093" cy="18.609" r="14.436"/></g><g><g><path d="m94.752 87.082c0 18.089-14.664 32.753-32.753 32.753s-32.753-14.664-32.753-32.753c.001-19.771 32.754-57.248 32.754-57.248s32.752 37.26 32.752 57.248z" fill="#fa759e"/></g><path d="m62 116.834c-17.463 0-31.73-13.668-32.696-30.89-.022.381-.056.768-.056 1.137 0 18.089 14.664 32.753 32.753 32.753s32.753-14.664 32.753-32.753c0-.371-.034-.759-.056-1.141-.965 17.224-15.234 30.894-32.698 30.894z" fill="#fff"/><g fill="#3a2c60"><path d="m103 34.173c-8.512 0-15.437 6.925-15.437 15.436s6.925 15.436 15.437 15.436c8.511 0 15.436-6.925 15.436-15.436s-6.925-15.436-15.436-15.436zm0 28.872c-7.409 0-13.437-6.027-13.437-13.436s6.028-13.436 13.437-13.436c7.408 0 13.436 6.027 13.436 13.436s-6.028 13.436-13.436 13.436z"/><path d="m105.555 45.164c-.724-.411-1.575-.616-2.556-.616-.979 0-1.831.206-2.555.616s-1.281.996-1.673 1.757-.588 1.654-.588 2.681.196 1.92.588 2.681.949 1.349 1.673 1.764c.724.416 1.575.623 2.555.623s1.832-.208 2.556-.623c.723-.415 1.28-1.003 1.673-1.764.392-.76.588-1.654.588-2.681s-.196-1.92-.588-2.681c-.393-.761-.95-1.346-1.673-1.757zm-.616 6.944c-.472.579-1.118.868-1.939.868s-1.465-.29-1.932-.868-.7-1.414-.7-2.506.231-1.925.693-2.499 1.108-.861 1.938-.861c.831 0 1.479.287 1.946.861s.7 1.407.7 2.499c.001 1.092-.235 1.927-.706 2.506z"/><path d="m36.436 49.602c0-8.512-6.925-15.437-15.436-15.437-8.512 0-15.437 6.925-15.437 15.437 0 8.511 6.925 15.436 15.437 15.436 8.511 0 15.436-6.925 15.436-15.436zm-15.436 13.436c-7.409 0-13.437-6.027-13.437-13.436s6.028-13.436 13.437-13.436c7.408 0 13.436 6.028 13.436 13.437s-6.028 13.435-13.436 13.435z"/><path d="m22.134 45.283c-.112-.214-.271-.382-.477-.504-.205-.121-.43-.182-.672-.182-.233 0-.453.059-.658.175s-.359.287-.462.511l-3.78 7.938c-.074.168-.111.317-.111.448 0 .261.106.483.321.665s.458.273.729.273c.187 0 .356-.049.511-.147.154-.098.273-.245.357-.441l.742-1.652h4.745l.742 1.652c.084.196.205.343.364.441.158.098.326.147.504.147.271 0 .511-.091.721-.273s.315-.404.315-.665c0-.131-.037-.28-.112-.448zm-2.759 5.432 1.639-3.64 1.624 3.64z"/><path d="m81.907 34.038c8.511 0 15.436-6.925 15.436-15.436 0-8.512-6.925-15.437-15.436-15.437-8.512 0-15.437 6.925-15.437 15.437.001 8.511 6.926 15.436 15.437 15.436zm0-28.872c7.408 0 13.436 6.028 13.436 13.437s-6.027 13.436-13.436 13.436-13.437-6.027-13.437-13.436 6.028-13.437 13.437-13.437z"/><path d="m73.262 23.607c.187 0 .356-.049.511-.147.154-.098.273-.245.357-.441l.742-1.652h4.745l.742 1.652c.084.196.205.343.364.441.158.098.326.147.504.147.271 0 .511-.091.721-.273s.315-.404.315-.665c0-.131-.037-.28-.112-.448l-3.779-7.938c-.112-.214-.271-.382-.477-.504-.205-.121-.43-.182-.672-.182-.233 0-.453.059-.658.175s-.359.287-.462.511l-3.78 7.938c-.074.168-.111.317-.111.448 0 .261.106.483.321.665s.459.273.729.273zm3.99-7.532 1.624 3.64h-3.263z"/><path d="m84.49 23.551h3.668c1.073 0 1.916-.243 2.527-.728s.917-1.143.917-1.974c0-.606-.156-1.118-.47-1.533-.313-.416-.753-.707-1.322-.875.485-.177.865-.46 1.141-.847s.413-.837.413-1.351c0-.793-.301-1.418-.903-1.876-.602-.457-1.416-.686-2.442-.686h-3.529c-.327 0-.579.089-.756.266-.178.177-.266.429-.266.756v7.826c0 .327.088.579.266.756.177.178.428.266.756.266zm1.106-8.204h2.058c.56 0 .973.096 1.239.287s.398.492.398.903c0 .392-.133.684-.398.875-.267.191-.68.287-1.239.287h-2.058zm0 4.018h2.31c.579 0 .999.103 1.26.308.262.206.393.527.393.966s-.131.756-.393.952c-.261.196-.681.294-1.26.294h-2.31z"/><path d="m42.093 34.045c8.511 0 15.436-6.925 15.436-15.436s-6.925-15.436-15.436-15.436c-8.512 0-15.437 6.925-15.437 15.436s6.925 15.436 15.437 15.436zm0-28.872c7.408 0 13.436 6.027 13.436 13.436s-6.027 13.436-13.436 13.436-13.437-6.027-13.437-13.436 6.028-13.436 13.437-13.436z"/><path d="m39.047 23.544h3.668c1.073 0 1.916-.243 2.527-.728s.917-1.143.917-1.974c0-.606-.156-1.118-.47-1.533-.313-.416-.753-.707-1.322-.875.485-.177.865-.46 1.141-.847s.413-.837.413-1.351c0-.793-.301-1.418-.903-1.876-.602-.457-1.416-.686-2.442-.686h-3.528c-.327 0-.579.089-.756.266-.178.177-.266.429-.266.756v7.826c0 .327.088.579.266.756.176.178.428.266.755.266zm1.107-8.204h2.058c.56 0 .973.096 1.239.287s.398.492.398.903c0 .392-.133.684-.398.875-.267.191-.68.287-1.239.287h-2.058zm0 4.018h2.31c.579 0 .999.103 1.26.308.262.206.393.527.393.966s-.131.756-.393.952c-.261.196-.681.294-1.26.294h-2.31z"/><path d="m49.76 43.571c-1.569 2.109-3.083 4.21-4.5 6.243-.315.453-.204 1.077.249 1.392.174.122.373.18.57.18.316 0 .627-.149.821-.428 1.405-2.017 2.907-4.1 4.465-6.193.329-.443.237-1.069-.206-1.399-.441-.329-1.069-.238-1.399.205z"/><path d="m62 28.835c-.289 0-.563.125-.753.342-.04.046-4.083 4.681-9.249 11.43-.336.438-.252 1.066.187 1.402.438.337 1.066.253 1.401-.186 3.821-4.993 7.021-8.815 8.415-10.455 4.88 5.715 31.751 37.999 31.751 55.714 0 17.509-14.244 31.753-31.752 31.753-17.509 0-31.753-14.244-31.753-31.753 0-7.434 5.023-18.851 14.527-33.017.308-.458.186-1.08-.272-1.388-.462-.308-1.081-.185-1.388.273-9.865 14.704-14.867 26.187-14.867 34.131 0 18.611 15.142 33.753 33.753 33.753s33.752-15.142 33.752-33.753c0-20.133-31.653-56.375-33.001-57.907-.189-.216-.464-.339-.751-.339z"/></g><g fill="#fff"><circle cx="80.469" cy="105.741" r="2.249"/><path d="m84.331 103.24c-.36 0-.726-.098-1.055-.302-.938-.583-1.225-1.817-.642-2.755 3.038-4.884 4.096-11.143 3.142-18.604-.141-1.096.634-2.098 1.729-2.238 1.089-.135 2.097.634 2.237 1.73 1.074 8.398-.175 15.539-3.712 21.225-.378.609-1.031.944-1.699.944z"/></g></g></g></g></svg>