<svg id="Layer_1" enable-background="new 0 0 512 512" height="512" viewBox="0 0 512 512" width="512" xmlns="http://www.w3.org/2000/svg"><g><path d="m484.581 156.673-110.265-126.245c-35.076-19.383-75.404-30.428-118.316-30.428-135.311 0-245.002 109.691-245.002 245.002s109.691 245.002 245.002 245.002 245.002-109.691 245.002-245.002c0-31.144-5.824-60.924-16.421-88.329z" fill="#fc90ce"/><path d="m217.327 137.73c-34.221 12.3-48.239 43.179-53.975 66.918l-.225.933c-13.554 56.094-38.783 160.508 9.492 221.837 23.286 29.582 61.293 45.699 113.069 48.019 57.702-49.001 77.041-138.022 27.538-208.969-34.099-48.87-65.703-87.898-89.301-130.801-2.154.578-4.359 1.258-6.598 2.063z" fill="#ff4155"/><path d="m419.832 62.871c-19.111 6.164-31.544 18.847-35.955 36.771-.334 1.356-.679 2.739-1.029 4.146-5.517 22.152-12.383 49.72-4.119 76.06 6.934 22.103 23.28 39.489 49.595 52.614 32.386-12.053 53.917-42.604 56.257-75.789-14.008-36.224-36.385-68.273-64.749-93.802z" fill="#ff4155"/><path d="m500.744 256.016c-18.138-1.501-42.411 1.448-65.41 19.984-44.667 36-67.334 42-67.334 101.333 0 35.655 8.482 59.746 27.674 68.963 60.833-42.29 101.58-111.438 105.07-190.28z" fill="#fea5da"/><path d="m11.347 231.917c45.2-9.036 97.014-96.696 114.653-129.983 11.301-21.326 8.053-45.068.771-65.1-66.028 41.077-111.087 112.678-115.424 195.083z" fill="#fea5da"/><g fill="#cc0053"><path d="m183.83 512h.54.541c40.544 0 75.719-14.667 102.416-37.989-186.49-7.211-141.932-188.648-122.516-269.011 11.037-45.683 38.076-62.253 59.865-67.974-11.758-21.185-21.578-43.278-28.768-67.953-3.37-11.565-19.703-11.564-23.073 0-21.571 74.026-66.712 124.865-117.32 197.395-72.23 103.519 2.088 245.532 128.315 245.532z"/><ellipse cx="154" cy="295.92" rx="36" ry="44.747"/><ellipse cx="148" cy="365.648" rx="22.059" ry="31.221"/><ellipse cx="381.108" cy="126.482" rx="21.032" ry="20.715"/><ellipse cx="377.603" cy="158.762" rx="12.888" ry="14.453"/><circle cx="212.059" cy="365.136" r="14.149"/><path d="m397.363 237.904h.301c11.765 0 22.707-2.237 32.602-6.2-71.839-35.178-54.288-93.698-44.933-131.705 5.306-21.557 21.171-31.464 35.776-35.979-14.174-12.938-29.868-24.24-46.793-33.593-13.009 23.133-30.169 44.41-48.639 70.88-40.183 57.59 1.162 136.596 71.385 136.596h.301z"/></g></g></svg>