<svg id="Layer_1" enable-background="new 0 0 497 497" height="512" viewBox="0 0 497 497" width="512" xmlns="http://www.w3.org/2000/svg"><g><path d="m384.034 497c8.443-82.999-104.465-67.683-104.465-134.645l1.045-24.855h-63.226v24.134c0 67.683-114.564 51.82-104.465 135.366l135.466-16.5z" fill="#ffe0e0"/><g><path d="m279.569 362.355 1.045-24.855h-40l-1.045 24.855c0 65.63 108.445 52.236 104.81 129.821l39.655 4.824c8.444-82.999-104.465-67.683-104.465-134.645z" fill="#ffcfcf"/></g><g><g><path d="m99.173 331.51c-9.811 0-17.765-7.93-17.765-17.711v-147.211c0-92.004 74.81-166.588 167.092-166.588 92.282 0 167.092 74.584 167.092 166.588v147.211c0 9.782-7.954 17.711-17.765 17.711z" fill="#f5a26a"/><path d="m248.5 0c-6.77 0-13.442.412-20 1.192 82.852 9.854 147.092 80.141 147.092 165.396v147.211c0 9.782-7.954 17.711-17.765 17.711h40c9.811 0 17.765-7.929 17.765-17.711v-147.211c0-92.004-74.81-166.588-167.092-166.588z" fill="#e68e53"/><g><g><g fill="#ffcfcf"><path d="m159.043 250.102h-32.991c-10.617 0-19.224-8.607-19.224-19.224v-14.984c0-10.617 8.607-19.224 19.224-19.224h32.991z"/><path d="m337.957 250.102h32.991c10.617 0 19.224-8.607 19.224-19.224v-14.984c0-10.617-8.607-19.224-19.224-19.224h-32.991z"/></g><path d="m357.957 168.016v114.886c0 23.593-13.129 45.238-34.086 56.196l-43.379 22.681c-18.026 9.425-39.486 9.686-57.737.702l-48.242-23.747c-21.72-10.691-35.47-32.748-35.47-56.898v-113.82h132.219l12.605-30.31 15.571 30.31z" fill="#ffe0e0"/><g><path d="m317.957 168.016v114.886c0 23.593-13.129 45.238-34.086 56.196l-43.379 22.682c-3.093 1.617-6.293 2.944-9.555 4.022 16.266 5.369 34.16 4.028 49.555-4.022l43.379-22.682c20.957-10.958 34.086-32.603 34.086-56.196v-114.886z" fill="#ffcfcf"/></g></g></g><g><g><path d="m306.761 407.395c-.046 32.065-26.121 58.046-58.282 58.046-32.19 0-58.284-26.026-58.284-58.131v-.489c-33.197 22.482-84.15 33.271-77.271 90.179h271.111c5.731-56.339-44.445-67.383-77.274-89.605z" fill="#bdedff"/></g><g><path d="m306.761 407.395c-.011 7.306-1.385 14.29-3.863 20.729 24.068 14.006 44.944 31.442 41.136 68.876h40c5.732-56.339-44.444-67.383-77.273-89.605z" fill="#a8e7ff"/></g></g></g><g><g><path d="m222.914 238.411c-4.142 0-7.5-3.358-7.5-7.5 0-8.546-6.98-15.499-15.56-15.499s-15.56 6.953-15.56 15.499c0 9.697-15 9.697-15 0 0-16.817 13.709-30.499 30.56-30.499s30.56 13.682 30.56 30.499c0 4.142-3.358 7.5-7.5 7.5z" fill="#bd6c37"/></g><g><path d="m320.205 238.411c-4.142 0-7.5-3.358-7.5-7.5 0-8.546-6.98-15.499-15.56-15.499s-15.56 6.953-15.56 15.499c0 9.697-15 9.697-15 0 0-16.817 13.709-30.499 30.56-30.499s30.56 13.682 30.56 30.499c0 4.142-3.358 7.5-7.5 7.5z" fill="#bd6c37"/></g></g><g><path d="m280.614 297.335c0 17.689-14.378 32.03-32.114 32.03s-32.114-14.34-32.114-32.03v-24.813h64.229v24.813z" fill="#bd6c37"/><g><path d="m278.957 306.255c-33.642-15.634-60.915 0-60.915 0l-.323.217c3.944 13.236 16.229 22.892 30.781 22.892 14.568 0 26.862-9.677 30.793-22.935z" fill="#f54c5a"/></g></g></g></g></svg>