<svg id="Capa_1" enable-background="new 0 0 512 512" height="512" viewBox="0 0 512 512" width="512" xmlns="http://www.w3.org/2000/svg"><g><path d="m442.179 216.115-88.08-165.276-17.752-8.244c-21.832 6.488-42.414 18.343-59.533 35.463l-9.971 9.534c-6.066 5.799-15.621 5.8-21.686.001.005.005-9.971-9.532-9.976-9.538-11.919-11.919-25.517-21.287-40.046-28.069l-33.679 8.77-73.35 197.61 180.488 188.106 24.296 3.88c15.123-15.149 37.445-37.509 61.25-61.356l-4.677-29.231z" fill="#60b9fe"/><g><path d="m115.809 270.244c-8.768-8.768-16.185-18.376-22.251-28.565l-10.395 28.005 146.524 167.404 1.986 24.626c3.292 3.311 5.413 5.444 6.088 6.123 9.821 9.878 25.8 9.895 35.642.036.627-.628 7.973-7.987 19.489-19.523-58.289-58.624-170.938-171.925-177.083-178.106z" fill="#1ca8ff"/></g><g fill="#00f4a8"><path d="m166.938 311.648c-10.216 1.792-18.795 1.453-26.16-.388l106.094 110.573c-.22-1.799-.497-3.488-.797-5.023-1.048-5.361-1.093-10.879.067-16.217 6.354-29.235-30.759-44.058-41.464-53.157-13.014-11.061-.65-42.295-37.74-35.788z"/><path d="m152.307 37.776-18.151 4.819-57.175 45.435-19.916 135.983 39.856 41.538c.875-12.707 21.564-20.624 38.133-37.194 20.822-20.822 27.98-28.631 14.315-68.974s20.172-56.611 39.693-84.591c5.864-8.405 7.146-16.956 6.073-24.807-13.659-6.374-28.143-10.439-42.828-12.209z"/></g><path d="m246.025 401.214c-30.006-30.18-62.796-63.16-88.006-88.516-30.777 1.831-44.94-17.717-57.453-36.189-6.083-8.98-4.038-15.381 1.936-21.556-42.629-56.373-38.861-136.658 11.329-188.792 11.47-11.914 24.507-21.352 38.475-28.386-40.971-4.938-83.521 8.146-114.181 39.993-51.445 53.44-50.825 138.465 1.853 191.143 6.934 6.974 158.652 159.57 191.693 192.804 17.76-11.789 16.742-32.946 14.403-44.905-1.007-5.154-1.075-10.451-.049-15.596z" fill="#00e49d"/><path d="m473.872 77.768c-36.551-37.966-90-49.296-137.525-35.172-3.888 14.524-4.425 33.557 14.693 42.554 33.186 15.617 14.966 36.439-24.727 37.09s-72.879 47.501-36.439 64.419c36.439 16.918 11.713 41.645 40.343 43.597 28.631 1.952 39.693-54.659 62.467-45.549s30.583 63.769-16.918 87.194-69.625 3.254-76.132 30.583c-4.947 20.776 41.996 51.329 54.505 84.512 54.185-54.278 116.011-116.211 117.881-118.084 52.681-52.68 53.3-137.706 1.852-191.144z" fill="#00f4a8"/></g></svg>